<?xml version="1.0" encoding="UTF-8"?>
<svg width="1024" height="1024" viewBox="0 0 1024 1024" fill="none" xmlns="http://www.w3.org/2000/svg">
  <title>Willow tree</title>
  <ellipse cx="512" cy="835" rx="230" ry="45" fill="#000" opacity="0.12"/>
  <path d="M455 815C475 670 492 520 515 365C538 520 553 670 573 815H455Z" fill="#7A4A2A"/>
  <path d="M512 405C445 390 370 430 310 500" stroke="#7A4A2A" stroke-width="28" stroke-linecap="round"/>
  <path d="M520 400C595 378 680 420 735 500" stroke="#7A4A2A" stroke-width="28" stroke-linecap="round"/>
  <ellipse cx="512" cy="370" rx="250" ry="170" fill="#4FA35B"/>
  <ellipse cx="512" cy="460" rx="315" ry="180" fill="#68BE68"/>
  <g stroke="#2F7C47" stroke-width="18" stroke-linecap="round">
    <path d="M280 430C260 525 280 615 245 720"/>
    <path d="M360 375C345 490 360 600 330 735"/>
    <path d="M450 350C435 490 445 620 420 760"/>
    <path d="M535 340C525 485 535 615 515 765"/>
    <path d="M625 355C610 495 630 620 600 750"/>
    <path d="M710 395C690 515 715 620 675 725"/>
  </g>
  <g stroke="#A8E381" stroke-width="8" stroke-linecap="round" opacity="0.7">
    <path d="M300 465C285 530 285 600 270 670"/>
    <path d="M390 415C380 510 385 610 365 705"/>
    <path d="M575 395C570 495 578 610 560 710"/>
    <path d="M690 450C675 545 695 610 665 690"/>
  </g>
</svg>
