<svg xmlns="http://www.w3.org/2000/svg" viewBox="0 0 700 500" role="img" aria-label="Interval quality ladder">
  <defs>
    <marker id="ar" viewBox="0 0 10 10" refX="9" refY="5" markerWidth="5.5" markerHeight="5.5" orient="auto-start-reverse">
      <path d="M0,0 L10,5 L0,10 z" fill="#bfb2a2"/>
    </marker>
  </defs>
  <style>
    .bx   { fill:#ffffff; stroke:#d8cdbf; stroke-width:1.5; }
    .bxk  { fill:#fdf3d8; stroke:#e2c766; stroke-width:1.5; }
    .band { fill:#fdfaf1; stroke:#e8dcc0; stroke-width:1.5; }
    .ln   { stroke:#bfb2a2; stroke-width:2; stroke-linecap:round; fill:none; }
    .t    { font-family:-apple-system,BlinkMacSystemFont,'Segoe UI',Roboto,Helvetica,Arial,sans-serif; }
    .name { font-size:19px; font-weight:800; fill:#1a1410; }
    .namek{ font-size:19px; font-weight:800; fill:#2a1c02; }
    .nums { font-size:13.5px; font-weight:600; fill:#7a5300; }
    .step { font-size:12px; font-weight:500; fill:#8a7868; }
    .grp  { font-size:11px; font-weight:700; fill:#b07c08; letter-spacing:.07em; }
  </style>

  <!-- Augmented (top), reached by going a semitone up from either family -->
  <rect class="bx" x="265" y="22" width="170" height="44" rx="10"/>
  <text class="t name" x="350" y="51" text-anchor="middle">Augmented</text>
  <line class="ln" x1="350" y1="110" x2="350" y2="72" marker-end="url(#ar)"/>
  <text class="t step" x="362" y="97">one semitone higher</text>

  <!-- fork joins the major-scale row to that upward step -->
  <line class="ln" x1="350" y1="110" x2="205" y2="196"/>
  <line class="ln" x1="350" y1="110" x2="495" y2="196"/>

  <!-- the major-scale row, grouped. Band 58..642 and boxes 90..610 give an equal
       32px inset on both sides, and the row centres on 350 like the rest. -->
  <rect class="band" x="58" y="196" width="584" height="110" rx="16"/>
  <text class="t grp" x="350" y="217" text-anchor="middle">THE INTERVALS IN A MAJOR SCALE</text>

  <rect class="bxk" x="90" y="228" width="230" height="64" rx="12"/>
  <text class="t namek" x="205" y="255" text-anchor="middle">Major</text>
  <text class="t nums" x="205" y="278" text-anchor="middle">2nd &#183; 3rd &#183; 6th &#183; 7th</text>

  <rect class="bxk" x="380" y="228" width="230" height="64" rx="12"/>
  <text class="t namek" x="495" y="255" text-anchor="middle">Perfect</text>
  <text class="t nums" x="495" y="278" text-anchor="middle">unison &#183; 4th &#183; 5th &#183; octave</text>

  <!-- major -> minor -> diminished -->
  <line class="ln" x1="205" y1="306" x2="205" y2="350" marker-end="url(#ar)"/>
  <text class="t step" x="217" y="332">one semitone lower</text>
  <rect class="bx" x="125" y="350" width="160" height="44" rx="10"/>
  <text class="t name" x="205" y="379" text-anchor="middle">Minor</text>

  <line class="ln" x1="205" y1="394" x2="205" y2="438" marker-end="url(#ar)"/>
  <text class="t step" x="217" y="420">one semitone lower again</text>
  <rect class="bx" x="105" y="438" width="200" height="44" rx="10"/>
  <text class="t name" x="205" y="467" text-anchor="middle">Diminished</text>

  <!-- perfect -> diminished -->
  <line class="ln" x1="495" y1="306" x2="495" y2="350" marker-end="url(#ar)"/>
  <text class="t step" x="507" y="332">one semitone lower</text>
  <rect class="bx" x="395" y="350" width="200" height="44" rx="10"/>
  <text class="t name" x="495" y="379" text-anchor="middle">Diminished</text>
</svg>
